<svg width="20" height="13" viewBox="0 0 20 13" fill="none" xmlns="http://www.w3.org/2000/svg">
<path d="M16.8464 0.97998H3.15364C2.34909 0.97998 1.64273 1.47712 1.41182 2.20312C0.875455 3.88655 0 6.90969 0 8.69427C0 11.0608 2.03455 12.9791 4.54455 12.98C7.54455 12.98 12.4564 12.98 15.4564 12.98C17.9655 12.9791 20 11.0608 20 8.69427C20 6.90969 19.1245 3.88655 18.5882 2.20312C18.3573 1.47712 17.6509 0.97998 16.8464 0.97998ZM8.18182 7.83712H7.27273V8.69427C7.27273 9.16741 6.86545 9.55141 6.36364 9.55141C5.86182 9.55141 5.45455 9.16741 5.45455 8.69427V7.83712H4.54545C4.04364 7.83712 3.63636 7.45312 3.63636 6.97998C3.63636 6.50684 4.04364 6.12284 4.54545 6.12284H5.45455V5.26569C5.45455 4.79255 5.86182 4.40855 6.36364 4.40855C6.86545 4.40855 7.27273 4.79255 7.27273 5.26569V6.12284H8.18182C8.68364 6.12284 9.09091 6.50684 9.09091 6.97998C9.09091 7.45312 8.68364 7.83712 8.18182 7.83712ZM13.6364 6.12284C13.1345 6.12284 12.7273 5.73884 12.7273 5.26569C12.7273 4.79255 13.1345 4.40855 13.6364 4.40855C14.1382 4.40855 14.5455 4.79255 14.5455 5.26569C14.5455 5.73884 14.1382 6.12284 13.6364 6.12284ZM15.4545 9.55141C14.9527 9.55141 14.5455 9.16741 14.5455 8.69427C14.5455 8.22112 14.9527 7.83712 15.4545 7.83712C15.9564 7.83712 16.3636 8.22112 16.3636 8.69427C16.3636 9.16741 15.9564 9.55141 15.4545 9.55141Z" fill="#BCED31"/>
</svg>
