<?xml version="1.0" encoding="UTF-8"?>
<svg id="Layer_2" data-name="Layer 2" xmlns="http://www.w3.org/2000/svg" xmlns:xlink="http://www.w3.org/1999/xlink" viewBox="0 0 116.56 33.38">
  <defs>
    <style>
      .cls-1 {
        fill: url(#linear-gradient);
      }

      .cls-1, .cls-2, .cls-3, .cls-4 {
        stroke-width: 0px;
      }

      .cls-2 {
        fill: url(#linear-gradient-2);
      }

      .cls-3 {
        fill: #0d1724;
      }

      .cls-4 {
        fill: #e8e8e8;
      }
    </style>
    <linearGradient id="linear-gradient" x1="17.38" y1="18.63" x2="116.56" y2="18.63" gradientUnits="userSpaceOnUse">
      <stop offset="0" stop-color="#0a1623"/>
      <stop offset="1" stop-color="#ffcd70"/>
    </linearGradient>
    <linearGradient id="linear-gradient-2" x1="0" y1="16.69" x2="36.86" y2="16.69" gradientUnits="userSpaceOnUse">
      <stop offset="0" stop-color="#f78f2c"/>
      <stop offset="1" stop-color="#ffcd70"/>
    </linearGradient>
  </defs>
  <g id="Layer_1-2" data-name="Layer 1">
    <g>
      <g>
        <path class="cls-1" d="m111.29,7.79c1.82,0,3.3,1.53,3.3,3.42l-2.9,14.85c0,1.89-1.48,3.42-3.3,3.42H22.65c-1.82,0-3.3-1.53-3.3-3.42v-14.85c0-1.89,1.48-3.42,3.3-3.42h88.64m0-1.97H22.65c-2.9,0-5.27,2.42-5.27,5.38v14.85c0,2.97,2.36,5.38,5.27,5.38h85.74c2.84,0,5.16-2.3,5.26-5.17l2.87-14.69.04-.19v-.19c0-2.97-2.36-5.38-5.27-5.38h0Z"/>
        <g>
          <path class="cls-3" d="m5.74,26.62h25.38v4.76H5.74v-4.76Zm28.55-14.27h-4.76l-1.59,3.17h-3.17l-1.59-7.93-4.76-4.76-4.75,4.76-1.59,7.93h-3.17l-1.59-3.17H2.56l2.39,9.51h-.8v3.17h28.55v-3.17h-.79l2.38-9.51Zm-15.87,0l1.59,3.17-1.59,3.17-1.58-3.17,1.58-3.17Z"/>
          <path class="cls-2" d="m18.42,2.83l4.76,4.76,1.59,7.93h3.17l1.59-3.17h4.76l-2.38,9.51h.79v3.17H4.15v-3.17h.8l-2.39-9.51h4.76l1.59,3.17h3.17l1.59-7.93,4.75-4.76m0,15.86l1.59-3.17-1.59-3.17-1.58,3.17,1.58,3.17m12.69,7.93v4.76H5.74v-4.76h25.38M18.42,0l-1.41,1.42-4.75,4.76-.43.43-.12.59-1.27,6.32h-.3l-1.04-2.07-.55-1.1H0l.63,2.49,1.76,7.02h-.24v7.17h1.59v6.35h29.38v-6.35h1.59v-7.17h-.23l1.76-7.02.62-2.49h-8.56l-.55,1.1-1.04,2.07h-.3l-1.27-6.32-.12-.59-.43-.43-4.76-4.76-1.42-1.42h0Z"/>
        </g>
      </g>
      <g>
        <path class="cls-4" d="m39.96,25.63l2.97-13.97h2.67l.1,7.74-.14,1.54h.36l.14-1.54,1.64-7.74h2.2l-2.97,13.97h-2.65l-.12-7.74.16-1.54h-.36l-.16,1.54-1.64,7.74h-2.2Z"/>
        <path class="cls-4" d="m55.56,13.65h-2.46l-.84,3.91h2.21l-.42,1.96h-2.21l-.88,4.11h2.47l-.44,2h-4.65l2.97-13.97h4.65l-.42,2Z"/>
        <path class="cls-4" d="m63.58,11.66l-3.13,6.9.16,7.06h-2.33l.04-4.81.2-.92h-.38l-.2.92-2.02,4.81h-2.25l3.27-7.2-.2-6.76h2.35l-.06,4.69-.16.74h.38l.16-.74,1.94-4.69h2.24Z"/>
        <path class="cls-4" d="m69.33,11.66l-.42,2h-1.58l-2.53,11.97h-2.19l2.53-11.97h-1.56l.44-2h5.31Z"/>
        <path class="cls-4" d="m76.55,11.66c.89,0,1.55.25,1.99.76s.56,1.18.39,2.02l-.64,2.99c-.2,1.01-.75,1.76-1.66,2.25l.16,5.95h-2.21l-.08-5.49h-.9l-1.18,5.49h-2.19l2.97-13.97h3.35Zm.14,2.95c.07-.29.03-.53-.11-.7-.14-.17-.36-.26-.65-.26h-.96l-.98,4.59h.96c.29,0,.55-.09.76-.26s.35-.41.4-.7l.58-2.67Z"/>
        <path class="cls-4" d="m77.77,25.63l2.97-13.97h2.2l-2.97,13.97h-2.19Z"/>
        <path class="cls-4" d="m82.62,25.63l1.3-13.97h2.29l-1.28,10.42-.28,1.38h.38l.28-1.38,3.17-10.42h2.19l-4.65,13.97h-3.41Z"/>
        <path class="cls-4" d="m92.42,11.66h3.43l-1.16,13.97h-2.31l.38-3.51h-1.84l-1.1,3.51h-2.21l4.81-13.97Zm1.14,3.31l.24-1.14h-.38l-.24,1.14-1.68,5.31h1.48l.58-5.31Z"/>
        <path class="cls-4" d="m100.68,11.66l-2.57,11.97h2.35l-.44,2h-4.51l2.97-13.97h2.2Z"/>
        <path class="cls-4" d="m106.13,25.06c-.71.54-1.53.81-2.47.81s-1.65-.27-2.11-.81c-.46-.54-.59-1.25-.41-2.15l.44-2.1h2.2l-.44,2.1c-.07.29-.03.53.11.7s.36.26.65.26.54-.09.76-.26.35-.41.4-.7l.38-1.68c.07-.33,0-.64-.23-.92s-.51-.54-.86-.79c-.35-.25-.7-.51-1.04-.8s-.6-.66-.78-1.12-.21-.99-.09-1.59l.36-1.68c.19-.88.62-1.59,1.31-2.12.69-.54,1.49-.81,2.42-.81s1.65.27,2.11.81c.46.54.59,1.25.41,2.12l-.4,1.88h-2.2l.4-1.9c.05-.27.01-.49-.12-.66s-.34-.26-.62-.26-.52.08-.72.25c-.2.17-.33.39-.38.67l-.32,1.44c-.07.33,0,.64.23.93s.5.55.85.8c.35.25.69.51,1.03.79.34.28.6.65.78,1.12s.21,1,.09,1.6l-.42,1.92c-.17.89-.61,1.61-1.32,2.15Z"/>
      </g>
    </g>
  </g>
</svg>